<svg xmlns="http://www.w3.org/2000/svg" xmlns:xlink="http://www.w3.org/1999/xlink" width="60" height="60" viewBox="0 0 60 60"><defs><path id="hawla" d="M543.39 3892.374l-12.123 10.017a7.016 7.016 0 0 1-4.456 1.609H502.97v3a1 1 0 0 1-1 1H491v-2h9.97v-15H491v-2h10.97c.232 0 .445.079.615.211l2.657-2.211H498c-3.86 0-7-3.141-7-7a1 1 0 0 1 1-1h3c0-14.001 11.126-25.454 25-25.981v-3.02h-2v-2h6v2h-2v3.02c13.875.527 25 11.98 25 25.98h3c.553 0 1 .448 1 1 0 3.741-2.951 6.807-6.647 6.992a3.93 3.93 0 0 1-.963 5.383zm-17.392-3.987l.002.113c0 1.93-1.57 3.5-3.5 3.5H516a1 1 0 0 0 0 2h11.68l9.804-7H525.66c.201.421.321.89.337 1.387zm16.765-.174a1.892 1.892 0 0 0-1.323-.901 1.894 1.894 0 0 0-1.415.33l-11.442 8.172a1.011 1.011 0 0 1-.583.186h-12c-1.654 0-3-1.346-3-3s1.346-3 3-3h6.5c.827 0 1.5-.673 1.5-1.5a1.526 1.526 0 0 0-1.496-1.5H509.42a3.01 3.01 0 0 0-1.89.697l-4.53 3.772v10.53h23.81a5.018 5.018 0 0 0 3.183-1.15l12.18-10.06c.86-.616 1.096-1.73.59-2.576zM499 3901c0 1.654-1.346 3-3 3s-3-1.346-3-3 1.346-3 3-3 3 1.346 3 3zm-2 0a1 1 0 0 0-2 0 1 1 0 0 0 2 0zm51.899-20H493.1a5.008 5.008 0 0 0 4.899 4h46a5.008 5.008 0 0 0 4.899-4zM521 3855c-13.233 0-24 10.767-24 24h48c0-13.233-10.767-24-24-24zm-14.953 10.735a20.456 20.456 0 0 0-1.754 2.278l-1.667-1.105a22.346 22.346 0 0 1 1.926-2.501zm14.954-6.735a19.926 19.926 0 0 0-13.686 5.429l-1.37-1.457A21.921 21.921 0 0 1 521 3857z"/></defs><g><g transform="translate(-491 -3848)"><use fill="#f57a30" xlink:href="#hawla"/></g></g></svg>