<svg xmlns="http://www.w3.org/2000/svg" xmlns:xlink="http://www.w3.org/1999/xlink" width="54" height="56" viewBox="0 0 54 56"><defs><path id="vv2qa" d="M951.914 3877.17a.991.991 0 0 1 .01 1.4.99.99 0 0 1-1.4-.01.991.991 0 0 1-.012-1.402.991.991 0 0 1 1.402.011zm-2.78 2.78a.991.991 0 0 1 .01 1.402.991.991 0 0 1-1.401-.012.991.991 0 0 1-.011-1.401.99.99 0 0 1 1.401.011zm12.676 7.116a.991.991 0 0 1 .011 1.402.99.99 0 0 1-1.401-.012.991.991 0 0 1-.011-1.401.99.99 0 0 1 1.401.011zm-2.78 2.78a.991.991 0 0 1 .011 1.402.991.991 0 0 1-1.402-.011.991.991 0 0 1-.01-1.401.991.991 0 0 1 1.4.01zm19.354-32.084l-9.036 9.037c-1.679 1.679-4.298 1.867-6.231.58l-7.12 7.12c.904 1.526.73 3.509-.563 4.8l-15.293 15.293c-1.533 1.534-4.047 1.514-5.605-.044-1.559-1.559-1.579-4.073-.045-5.606l15.292-15.293c1.293-1.292 3.276-1.467 4.801-.563l7.12-7.12c-1.286-1.933-1.098-4.553.58-6.23l9.037-9.037a.99.99 0 0 1 1.401.011.99.99 0 0 1 .012 1.401l-9.037 9.037c-.905.905-1.077 2.263-.545 3.37l10.994-10.994a.99.99 0 0 1 1.402.012.99.99 0 0 1 .011 1.401l-10.994 10.994c1.108.532 2.465.36 3.37-.545l9.037-9.036a.99.99 0 0 1 1.401.01.99.99 0 0 1 .011 1.402zM954 3875.084c-.78-.779-2.036-.789-2.803-.022l-15.293 15.292c-.766.767-.756 2.024.023 2.803.779.78 2.036.79 2.803.023l15.292-15.293c.767-.767.757-2.024-.022-2.803zm26.394.472l-1.538 1.529c-4.937 4.94-8.34 8.332-12.438 8.827.155 1.174-.196 2.394-1.086 3.284l-15.293 15.293c-1.533 1.534-4.048 1.513-5.606-.045-1.558-1.558-1.578-4.072-.045-5.606l15.293-15.292a3.872 3.872 0 0 1 2.622-1.122.948.948 0 0 1 .17-.257l20.158-20.159a.99.99 0 0 1 1.402.011c1.548 1.549 2.305 3.07 2.313 4.652.017 2.98-2.618 5.584-5.952 8.885zm-16.475 12.228c.767-.767.757-2.024-.022-2.803-.78-.78-2.037-.79-2.803-.023l-15.293 15.293c-.767.767-.757 2.024.022 2.803.78.78 2.037.79 2.803.022zm20.446-21.134c-.005-.8-.36-1.623-1.057-2.493l-18.826 18.826c.286.169.56.362.805.607.123.124.22.262.323.396 3.666-.154 6.945-3.422 11.833-8.313l1.545-1.537c3.01-2.98 5.388-5.331 5.377-7.486z"/></defs><g><g transform="translate(-933 -3850)"><use fill="#f57a30" xlink:href="#vv2qa"/></g></g></svg>