<svg xmlns="http://www.w3.org/2000/svg" xmlns:xlink="http://www.w3.org/1999/xlink" width="60" height="60" viewBox="0 0 60 60"><defs><path id="i8m8a" d="M1403.546 3875.109c.248-.126 6.094-3.096 9.152-4.063a1 1 0 1 1 .604 1.908c-2.903.917-8.79 3.907-8.848 3.937a1.003 1.003 0 0 1-1.346-.437 1 1 0 0 1 .438-1.345zm-.438-10.655a1 1 0 0 1 .438-1.345c.248-.126 6.094-3.096 9.152-4.063a1 1 0 1 1 .604 1.908c-2.903.917-8.79 3.907-8.848 3.937a1.003 1.003 0 0 1-1.346-.437zM1429 3864v39c0 2.757-2.243 5-5 5h-50c-2.757 0-5-2.243-5-5v-39a1 1 0 0 1 2 0v39c0 1.653 1.346 3 3 3h24v-2.352c-1.22-.51-4.344-1.648-8-1.648-8.742 0-15.657 1.942-15.726 1.96a1 1 0 0 1-1.274-.96v-44a1 1 0 0 1 .725-.96c.292-.085 7.239-2.04 16.275-2.04 5.177 0 9.275 2.02 9.447 2.105.339.17.553.516.553.895v38.263c3.047-1.734 10.174-5.607 17-7.98v-38.82c-7.353 2.956-14.396 7.338-14.47 7.385a1 1 0 1 1-1.06-1.696c.08-.05 8.177-5.088 16.178-8.089a.999.999 0 0 1 1.352.937v41a1 1 0 0 1-.684.949c-8.794 2.93-18.702 8.849-18.801 8.908A1 1 0 0 1 1398 3899v-39.352c-1.227-.513-4.354-1.648-8-1.648-7.105 0-13.003 1.283-15 1.774v41.938c2.438-.577 8.112-1.712 15-1.712 4.304 0 7.862 1.396 9.039 1.916 1.324-.485 5.604-1.916 9.96-1.916 6.703 0 11.735 1.076 14 1.67v-41.857a84.22 84.22 0 0 0-1.268-.243 1 1 0 0 1 .362-1.967c1.34.246 2.124.421 2.124.421.458.1.783.507.783.976v44a.999.999 0 0 1-1.315.948c-.059-.02-5.974-1.948-14.685-1.948-3.744 0-7.542 1.189-9 1.699v2.3h24c1.654 0 3-1.346 3-3v-39a1 1 0 1 1 2 0zm-25.454 5.109c.248-.126 6.094-3.096 9.152-4.063a1 1 0 1 1 .604 1.908c-2.903.917-8.79 3.907-8.848 3.937a.997.997 0 0 1-1.346-.437 1 1 0 0 1 .438-1.345zm0 12c.248-.126 6.094-3.096 9.152-4.063a1 1 0 1 1 .604 1.908c-2.903.917-8.79 3.907-8.848 3.937a1.003 1.003 0 0 1-1.346-.437 1 1 0 0 1 .438-1.345zm-9.572-13.35a1.002 1.002 0 0 1-1.202.746c-5.69-1.335-12.446.442-12.513.46a1 1 0 0 1-.518-1.932c.295-.078 7.312-1.924 13.487-.475a1 1 0 0 1 .746 1.2zm0 6a1.002 1.002 0 0 1-1.202.746c-5.69-1.335-12.446.442-12.513.46a1 1 0 0 1-.518-1.932c.295-.078 7.312-1.923 13.487-.475a1 1 0 0 1 .746 1.2zm9.572 13.35c.248-.126 6.094-3.096 9.152-4.063a1 1 0 0 1 .604 1.908c-2.903.917-8.79 3.906-8.848 3.937a1.003 1.003 0 0 1-1.346-.437 1 1 0 0 1 .438-1.345zm-9.572-7.35a1.002 1.002 0 0 1-1.202.746c-5.69-1.335-12.446.442-12.513.46a1 1 0 0 1-.518-1.932c.295-.079 7.312-1.923 13.487-.475a1 1 0 0 1 .746 1.2zm0 12c-.126.538-.667.87-1.202.746-5.69-1.336-12.446.442-12.513.46a1.001 1.001 0 0 1-.518-1.932c.295-.078 7.312-1.924 13.487-.475a1 1 0 0 1 .746 1.2zm0-6c-.126.538-.667.87-1.202.746-5.69-1.335-12.446.442-12.513.46a1.001 1.001 0 0 1-.518-1.932c.295-.08 7.312-1.924 13.487-.475a1 1 0 0 1 .746 1.2z"/></defs><g><g transform="translate(-1369 -3848)"><use fill="#f58039" xlink:href="#i8m8a"/></g></g></svg>