<svg xmlns="http://www.w3.org/2000/svg" xmlns:xlink="http://www.w3.org/1999/xlink" width="25" height="25" viewBox="0 0 25 25"><defs><path id="cfyxa" d="M775.187 4969.062c0 .432-.35.782-.78.782h-7.813a.782.782 0 0 1 0-1.563h7.812c.431 0 .781.35.781.781zm1.563-4.687c0 .431-.35.781-.781.781H765.03a.782.782 0 0 1 0-1.562h10.938c.43 0 .781.35.781.78zm6.25 1.562c0 6.04-5.596 10.938-12.5 10.938-.8 0-1.579-.073-2.337-.198l-5.476 3.323v-5.532c-2.855-2.005-4.687-5.078-4.687-8.53 0-6.042 5.597-10.938 12.5-10.938 6.904 0 12.5 4.896 12.5 10.937zm-1.563 0c0-5.177-4.896-9.374-10.937-9.374-6.04 0-10.938 4.197-10.938 9.374 0 3.177 1.849 5.98 4.668 7.676l-.049 3.624 3.678-2.211c.847.18 1.728.286 2.64.286 6.042 0 10.938-4.197 10.938-9.375z"/></defs><g><g opacity=".4" transform="translate(-758 -4955)"><use fill="#fffeff" xlink:href="#cfyxa"/></g></g></svg>